<svg width="88" height="48" viewBox="0 0 88 48" fill="none" xmlns="http://www.w3.org/2000/svg">
<path d="M21.9316 8.1582C21.8652 9.07617 21.5254 9.79883 20.9121 10.3262C20.3027 10.8535 19.498 11.1172 18.498 11.1172C17.4043 11.1172 16.543 10.75 15.9141 10.0156C15.2891 9.27734 14.9766 8.26562 14.9766 6.98047V6.45898C14.9766 5.63867 15.1211 4.91602 15.4102 4.29102C15.6992 3.66602 16.1113 3.1875 16.6465 2.85547C17.1855 2.51953 17.8105 2.35156 18.5215 2.35156C19.5059 2.35156 20.2988 2.61523 20.9004 3.14258C21.502 3.66992 21.8496 4.41016 21.9434 5.36328H20.1855C20.1426 4.8125 19.9883 4.41406 19.7227 4.16797C19.4609 3.91797 19.0605 3.79297 18.5215 3.79297C17.9355 3.79297 17.4961 4.00391 17.2031 4.42578C16.9141 4.84375 16.7656 5.49414 16.7578 6.37695V7.02148C16.7578 7.94336 16.8965 8.61719 17.1738 9.04297C17.4551 9.46875 17.8965 9.68164 18.498 9.68164C19.041 9.68164 19.4453 9.55859 19.7109 9.3125C19.9805 9.0625 20.1348 8.67773 20.1738 8.1582H21.9316ZM26.5371 6.24805C26.3066 6.2168 26.1035 6.20117 25.9277 6.20117C25.2871 6.20117 24.8672 6.41797 24.668 6.85156V11H22.9746V4.66016H24.5742L24.6211 5.41602C24.9609 4.83398 25.4316 4.54297 26.0332 4.54297C26.2207 4.54297 26.3965 4.56836 26.5605 4.61914L26.5371 6.24805ZM30.1582 11.1172C29.2285 11.1172 28.4707 10.832 27.8848 10.2617C27.3027 9.69141 27.0117 8.93164 27.0117 7.98242V7.81836C27.0117 7.18164 27.1348 6.61328 27.3809 6.11328C27.627 5.60938 27.9746 5.22266 28.4238 4.95312C28.877 4.67969 29.3926 4.54297 29.9707 4.54297C30.8379 4.54297 31.5195 4.81641 32.0156 5.36328C32.5156 5.91016 32.7656 6.68555 32.7656 7.68945V8.38086H28.7285C28.7832 8.79492 28.9473 9.12695 29.2207 9.37695C29.498 9.62695 29.8477 9.75195 30.2695 9.75195C30.9219 9.75195 31.4316 9.51562 31.7988 9.04297L32.6309 9.97461C32.377 10.334 32.0332 10.6152 31.5996 10.8184C31.166 11.0176 30.6855 11.1172 30.1582 11.1172ZM29.9648 5.91406C29.6289 5.91406 29.3555 6.02734 29.1445 6.25391C28.9375 6.48047 28.8047 6.80469 28.7461 7.22656H31.1016V7.0918C31.0938 6.7168 30.9922 6.42773 30.7969 6.22461C30.6016 6.01758 30.3242 5.91406 29.9648 5.91406ZM37.4062 11C37.3281 10.8477 37.2715 10.6582 37.2363 10.4316C36.8262 10.8887 36.293 11.1172 35.6367 11.1172C35.0156 11.1172 34.5 10.9375 34.0898 10.5781C33.6836 10.2188 33.4805 9.76562 33.4805 9.21875C33.4805 8.54688 33.7285 8.03125 34.2246 7.67188C34.7246 7.3125 35.4453 7.13086 36.3867 7.12695H37.166V6.76367C37.166 6.4707 37.0898 6.23633 36.9375 6.06055C36.7891 5.88477 36.5527 5.79688 36.2285 5.79688C35.9434 5.79688 35.7188 5.86523 35.5547 6.00195C35.3945 6.13867 35.3145 6.32617 35.3145 6.56445H33.6211C33.6211 6.19727 33.7344 5.85742 33.9609 5.54492C34.1875 5.23242 34.5078 4.98828 34.9219 4.8125C35.3359 4.63281 35.8008 4.54297 36.3164 4.54297C37.0977 4.54297 37.7168 4.74023 38.1738 5.13477C38.6348 5.52539 38.8652 6.07617 38.8652 6.78711V9.53516C38.8691 10.1367 38.9531 10.5918 39.1172 10.9004V11H37.4062ZM36.0059 9.82227C36.2559 9.82227 36.4863 9.76758 36.6973 9.6582C36.9082 9.54492 37.0645 9.39453 37.166 9.20703V8.11719H36.5332C35.6855 8.11719 35.2344 8.41016 35.1797 8.99609L35.1738 9.0957C35.1738 9.30664 35.248 9.48047 35.3965 9.61719C35.5449 9.75391 35.748 9.82227 36.0059 9.82227ZM42.1934 3.10156V4.66016H43.2773V5.90234H42.1934V9.06641C42.1934 9.30078 42.2383 9.46875 42.3281 9.57031C42.418 9.67188 42.5898 9.72266 42.8438 9.72266C43.0312 9.72266 43.1973 9.70898 43.3418 9.68164V10.9648C43.0098 11.0664 42.668 11.1172 42.3164 11.1172C41.1289 11.1172 40.5234 10.5176 40.5 9.31836V5.90234H39.5742V4.66016H40.5V3.10156H42.1934ZM47.1387 11.1172C46.209 11.1172 45.4512 10.832 44.8652 10.2617C44.2832 9.69141 43.9922 8.93164 43.9922 7.98242V7.81836C43.9922 7.18164 44.1152 6.61328 44.3613 6.11328C44.6074 5.60938 44.9551 5.22266 45.4043 4.95312C45.8574 4.67969 46.373 4.54297 46.9512 4.54297C47.8184 4.54297 48.5 4.81641 48.9961 5.36328C49.4961 5.91016 49.7461 6.68555 49.7461 7.68945V8.38086H45.709C45.7637 8.79492 45.9277 9.12695 46.2012 9.37695C46.4785 9.62695 46.8281 9.75195 47.25 9.75195C47.9023 9.75195 48.4121 9.51562 48.7793 9.04297L49.6113 9.97461C49.3574 10.334 49.0137 10.6152 48.5801 10.8184C48.1465 11.0176 47.666 11.1172 47.1387 11.1172ZM46.9453 5.91406C46.6094 5.91406 46.3359 6.02734 46.125 6.25391C45.918 6.48047 45.7852 6.80469 45.7266 7.22656H48.082V7.0918C48.0742 6.7168 47.9727 6.42773 47.7773 6.22461C47.582 6.01758 47.3047 5.91406 46.9453 5.91406ZM50.4492 7.7832C50.4492 6.79492 50.6699 6.00781 51.1113 5.42188C51.5566 4.83594 52.1641 4.54297 52.9336 4.54297C53.5508 4.54297 54.0605 4.77344 54.4629 5.23438V2H56.1621V11H54.6328L54.5508 10.3262C54.1289 10.8535 53.5859 11.1172 52.9219 11.1172C52.1758 11.1172 51.5762 10.8242 51.123 10.2383C50.6738 9.64844 50.4492 8.83008 50.4492 7.7832ZM52.1426 7.90625C52.1426 8.5 52.2461 8.95508 52.4531 9.27148C52.6602 9.58789 52.9609 9.74609 53.3555 9.74609C53.8789 9.74609 54.248 9.52539 54.4629 9.08398V6.58203C54.252 6.14062 53.8867 5.91992 53.3672 5.91992C52.5508 5.91992 52.1426 6.58203 52.1426 7.90625ZM66.1758 7.88867C66.1758 8.9043 65.959 9.69727 65.5254 10.2676C65.0918 10.834 64.4863 11.1172 63.709 11.1172C63.0215 11.1172 62.4727 10.8535 62.0625 10.3262L61.9863 11H60.4629V2H62.1562V5.22852C62.5469 4.77148 63.0605 4.54297 63.6973 4.54297C64.4707 4.54297 65.0762 4.82812 65.5137 5.39844C65.9551 5.96484 66.1758 6.76367 66.1758 7.79492V7.88867ZM64.4824 7.76562C64.4824 7.125 64.3809 6.6582 64.1777 6.36523C63.9746 6.06836 63.6719 5.91992 63.2695 5.91992C62.7305 5.91992 62.3594 6.14062 62.1562 6.58203V9.08398C62.3633 9.5293 62.7383 9.75195 63.2812 9.75195C63.8281 9.75195 64.1875 9.48242 64.3594 8.94336C64.4414 8.68555 64.4824 8.29297 64.4824 7.76562ZM69.5215 8.60352L70.6934 4.66016H72.5098L69.9609 11.9844L69.8203 12.3184C69.4414 13.1465 68.8164 13.5605 67.9453 13.5605C67.6992 13.5605 67.4492 13.5234 67.1953 13.4492V12.166L67.4531 12.1719C67.7734 12.1719 68.0117 12.123 68.168 12.0254C68.3281 11.9277 68.4531 11.7656 68.543 11.5391L68.7422 11.0176L66.5215 4.66016H68.3438L69.5215 8.60352Z" fill="white"/>
<path d="M12.5784 42.549H10.7745V40.7451H8.97064V38.9412H7.16676V47.9119H0V29.9706H7.16676V31.7745H8.97064V33.5784H10.7745V35.3822H12.5784V33.5784H14.3823V31.7745H16.1861V29.9706H23.3529V47.9119H16.1861V38.9412H14.3823V40.7451H12.5784V42.549Z" fill="white"/>
<path d="M43.098 47.9606H26.9606V46.1568H25.1567V31.7745H26.9606V29.9706H43.1468V31.7745H44.9506V46.1568H43.1468V47.9606H43.098ZM37.7351 44.3529V33.5784H32.3235V44.3529H37.7351Z" fill="white"/>
<path d="M64.6468 47.9606H48.5094V46.1568H46.7056V31.7745H48.5094V29.9706H64.6956V31.7745H66.4995V46.1568H64.6956V47.9606H64.6468ZM59.284 44.3529V33.5784H53.8723V44.3529H59.284Z" fill="white"/>
<path d="M80.8333 29.9706H88V47.9119H80.8333V42.549H79.0294V40.7451H77.2255V38.9412H75.4216V47.9119H68.2549V29.9706H75.4216V31.7745H77.2255V33.5784H79.0294V35.3822H80.8333V29.9706Z" fill="white"/>
<path d="M6.48416 24.3639C6.4354 24.3151 6.38665 24.2664 6.3379 24.2664C6.28914 24.2664 6.24039 24.2176 6.19164 24.2176C6.14288 24.2176 6.04538 24.2176 5.99662 24.2664C5.94787 24.3151 5.89912 24.3151 5.85036 24.3639C5.85036 24.4126 5.80161 24.4614 5.75286 24.5589C5.7041 24.6076 5.7041 24.7052 5.7041 24.8027H6.58166C6.58166 24.7052 6.58166 24.6076 6.53291 24.5589C6.53291 24.4614 6.53291 24.3639 6.48416 24.3639Z" fill="white"/>
<path d="M5.70403 25.4852C5.75278 25.5827 5.75278 25.6802 5.80153 25.7777C5.85029 25.8752 5.94779 25.9239 5.99655 25.9727C6.09405 26.0214 6.19156 26.0214 6.33782 26.0214C6.38658 26.0214 6.43533 26.0214 6.48408 26.0214C6.53284 26.0214 6.58159 25.9727 6.6791 25.9727C6.72785 25.9239 6.82536 25.9239 6.87411 25.8752C6.92286 25.8264 7.02037 25.7777 7.06912 25.6802L7.16663 25.7777V25.0951L5.65527 25.1439C5.70403 25.2414 5.70403 25.3876 5.70403 25.4852Z" fill="white"/>
<path d="M7.0205 26.1679C6.92299 26.2654 6.82548 26.3141 6.72798 26.3629C6.63047 26.4116 6.53296 26.4116 6.43546 26.4604C6.33795 26.4604 6.24044 26.4604 6.19169 26.4604C5.99668 26.4604 5.85042 26.4116 5.70415 26.3629C5.55789 26.3141 5.41163 26.2166 5.31413 26.1191C5.21662 26.0216 5.11911 25.8753 5.07036 25.7291C5.02161 25.5828 4.97285 25.3878 4.97285 25.1928C4.97285 24.9978 5.02161 24.8515 5.07036 24.7053C5.11911 24.559 5.21662 24.4127 5.31413 24.3152C5.41163 24.2177 5.55789 24.1202 5.70415 24.0227C5.85042 23.974 5.99668 23.9252 6.19169 23.9252C6.2892 23.9252 6.3867 23.9252 6.48421 23.9252C6.58172 23.9252 6.67922 23.974 6.72798 24.0227C6.82548 24.0715 6.87424 24.1202 6.97175 24.169C7.0205 24.2177 7.11801 24.3152 7.16676 24.4127C7.16676 24.4615 7.21551 24.5102 7.21551 24.559V21H0V23.9252C0.0487535 23.9252 0.0975069 23.9252 0.0975069 23.8765C0.14626 23.8277 0.243767 23.7789 0.292521 23.7302C0.341274 23.6814 0.390028 23.5839 0.438781 23.5352C0.487535 23.4864 0.536288 23.3889 0.536288 23.3402H0.877562V23.974H1.51136V24.364H0.877562C0.877562 24.6078 0.877562 24.8028 0.877562 24.949C0.877562 25.0953 0.877562 25.2416 0.877562 25.2903C0.877562 25.3878 0.877562 25.4366 0.877562 25.4853C0.877562 25.5341 0.877562 25.5341 0.877562 25.5341C0.877562 25.5828 0.877562 25.6316 0.877562 25.6803C0.877562 25.7291 0.877562 25.7778 0.926316 25.8266C0.926316 25.8753 0.975069 25.9241 1.02382 25.9241C1.07258 25.9729 1.12133 25.9729 1.17008 25.9729C1.17008 25.9729 1.21884 25.9729 1.26759 25.9729C1.31634 25.9729 1.31634 25.9729 1.3651 25.9241C1.41385 25.9241 1.4626 25.8753 1.51136 25.8266C1.56011 25.7778 1.60886 25.7291 1.65762 25.6803L1.90139 25.8753C1.80388 26.0216 1.70637 26.1191 1.65762 26.1679C1.56011 26.2166 1.4626 26.3141 1.41385 26.3141C1.31634 26.3629 1.26759 26.3629 1.17008 26.3629C1.12133 26.3629 1.07258 26.3629 1.02382 26.3629C0.975069 26.3629 0.926316 26.3629 0.877562 26.3629C0.828809 26.3629 0.780055 26.3141 0.682548 26.3141C0.585042 26.3629 0.536288 26.3629 0.487535 26.3141C0.438781 26.2654 0.390028 26.2166 0.341274 26.1679C0.292521 26.1191 0.292521 26.0216 0.243767 25.9241C0.243767 25.8266 0.195014 25.7291 0.195014 25.5828V24.4127L0 24.364V28.1668H7.16676V26.0216C7.11801 26.0704 7.06925 26.1191 7.0205 26.1679ZM4.72909 26.4116H3.4615V26.1191C3.51025 26.1191 3.559 26.1191 3.60776 26.0704C3.65651 26.0704 3.65651 26.0216 3.70526 25.9729C3.70526 25.9241 3.75402 25.8753 3.75402 25.8266C3.75402 25.7778 3.75402 25.7291 3.75402 25.6316V24.949C3.75402 24.754 3.70526 24.559 3.65651 24.4615C3.559 24.364 3.4615 24.3152 3.36399 24.3152C3.26648 24.3152 3.21773 24.3152 3.12022 24.364C3.02271 24.4127 2.97396 24.4615 2.92521 24.5102V25.6316C2.92521 25.6316 2.92521 25.6803 2.92521 25.7291C2.92521 25.7778 2.92521 25.7778 2.92521 25.8266C2.92521 25.8753 2.92521 25.9241 2.92521 25.9241C2.92521 25.9729 2.92521 26.0216 2.92521 26.0216H3.21773V26.4116H1.95014V26.1191C1.99889 26.1191 2.04765 26.1191 2.0964 26.0704C2.14515 26.0704 2.14515 26.0216 2.19391 25.9729C2.19391 25.9241 2.24266 25.8753 2.24266 25.8266C2.24266 25.7778 2.24266 25.7291 2.24266 25.6316V23.6327C2.24266 23.5839 2.24266 23.4864 2.24266 23.4377C2.24266 23.3402 2.24266 23.2914 2.24266 23.1939H1.90139V22.8526C1.99889 22.8526 2.0964 22.8526 2.19391 22.8526C2.29141 22.8526 2.34017 22.8526 2.43767 22.8039C2.48643 22.8039 2.53518 22.7551 2.58393 22.7551C2.63269 22.7551 2.63269 22.7064 2.68144 22.7064H2.92521V24.1202C2.97396 24.0715 3.02271 24.0227 3.07147 24.0227C3.12022 23.974 3.21773 23.974 3.26648 23.9252C3.31524 23.9252 3.36399 23.9252 3.4615 23.9252C3.51025 23.9252 3.559 23.9252 3.60776 23.9252C3.75402 23.9252 3.90028 23.9252 3.99778 23.974C4.09529 24.0227 4.1928 24.0715 4.24155 24.169C4.2903 24.2177 4.33906 24.3152 4.38781 24.4615C4.43656 24.6078 4.43656 24.754 4.43656 24.949V25.5828C4.43656 25.5828 4.43656 25.6316 4.43656 25.6803C4.43656 25.7291 4.43656 25.7291 4.43656 25.7778C4.43656 25.8266 4.43656 25.8753 4.43656 25.8753C4.43656 25.9241 4.43656 25.9729 4.43656 25.9729H4.72909V26.4116Z" fill="white"/>
</svg>
