<svg width="25" height="25" viewBox="0 0 25 25" fill="none" xmlns="http://www.w3.org/2000/svg">
<path d="M24.3431 4.30835C24.0243 3.48725 23.5993 2.79173 22.9038 2.09621C22.2083 1.4007 21.5128 0.975656 20.6917 0.656877C19.8995 0.347758 18.9818 0.135238 17.6584 0.0772786C16.3253 0.0193188 15.9003 0 12.5 0C9.09969 0 8.67465 0.00965879 7.34158 0.0772786C6.0085 0.135238 5.10046 0.347758 4.30835 0.656877C3.48725 0.975656 2.79173 1.4007 2.09621 2.09621C1.4007 2.79173 0.975657 3.48725 0.656878 4.30835C0.347759 5.10046 0.13524 6.01816 0.0772801 7.34158C0.0193202 8.67465 0 9.09969 0 12.5C0 15.9003 0.00966027 16.3253 0.0772801 17.6584C0.13524 18.9915 0.347759 19.8995 0.656878 20.6917C0.975657 21.5128 1.4007 22.2083 2.09621 22.9038C2.79173 23.5993 3.48725 24.0243 4.30835 24.3431C5.10046 24.6522 6.01816 24.8648 7.34158 24.9227C8.67465 24.9807 9.09969 25 12.5 25C15.9003 25 16.3253 24.9903 17.6584 24.9227C18.9915 24.8648 19.8995 24.6522 20.6917 24.3431C21.5128 24.0243 22.2083 23.5993 22.9038 22.9038C23.5993 22.2083 24.0243 21.5128 24.3431 20.6917C24.6522 19.8995 24.8648 18.9818 24.9227 17.6584C24.9807 16.3253 25 15.9003 25 12.5C25 9.09969 24.9903 8.67465 24.9227 7.34158C24.8648 6.0085 24.6522 5.10046 24.3431 4.30835ZM22.6719 17.5522C22.614 18.7693 22.4111 19.4359 22.2372 19.8706C22.0151 20.4502 21.7349 20.8752 21.3002 21.3099C20.8655 21.7446 20.4502 22.0151 19.8609 22.2469C19.4165 22.4208 18.7597 22.6236 17.5425 22.6816C16.2191 22.7396 15.8327 22.7589 12.4903 22.7589C9.14799 22.7589 8.75193 22.7492 7.43818 22.6816C6.22102 22.6236 5.55448 22.4208 5.11978 22.2469C4.54019 22.0247 4.11515 21.7446 3.68045 21.3099C3.24575 20.8752 2.97527 20.4598 2.74343 19.8706C2.56955 19.4262 2.36669 18.7693 2.30873 17.5522C2.25077 16.2287 2.23145 15.8327 2.23145 12.5C2.23145 9.16731 2.24111 8.76159 2.30873 7.44784C2.36669 6.23068 2.56955 5.56414 2.74343 5.12944C2.96561 4.54985 3.24575 4.12481 3.68045 3.69011C4.11515 3.25541 4.53053 2.98493 5.11978 2.75309C5.56414 2.57921 6.22102 2.37635 7.43818 2.31839C8.76159 2.26043 9.15765 2.24111 12.4903 2.24111C15.823 2.24111 16.2287 2.25077 17.5425 2.31839C18.7597 2.37635 19.4262 2.57921 19.8609 2.75309C20.4405 2.97527 20.8655 3.25541 21.3002 3.69011C21.7349 4.12481 22.0054 4.54019 22.2372 5.12944C22.4111 5.5738 22.614 6.23068 22.6719 7.44784C22.7299 8.77125 22.7492 9.16731 22.7492 12.5C22.7492 15.8327 22.7299 16.2384 22.6719 17.5522Z" fill="white"/>
<path d="M12.5 6.25C9.05075 6.25 6.25 9.05075 6.25 12.5C6.25 15.9492 9.05075 18.75 12.5 18.75C15.9492 18.75 18.75 15.9492 18.75 12.5C18.75 9.05075 15.9492 6.25 12.5 6.25ZM12.5 16.5602C10.2632 16.5602 8.43985 14.7462 8.43985 12.5C8.43985 10.2632 10.2538 8.43985 12.5 8.43985C14.7462 8.43985 16.5602 10.2538 16.5602 12.5C16.5602 14.7368 14.7368 16.5602 12.5 16.5602Z" fill="white"/>
<path d="M18.7688 7.5C19.4695 7.5 20.0376 6.94036 20.0376 6.25C20.0376 5.55964 19.4695 5 18.7688 5C18.0681 5 17.5 5.55964 17.5 6.25C17.5 6.94036 18.0681 7.5 18.7688 7.5Z" fill="white"/>
</svg>
